<svg width="450" height="286" viewBox="0 0 450 286" fill="none" xmlns="http://www.w3.org/2000/svg">
<rect width="211.095" height="286" transform="matrix(-1 0 0 1 317.787 0)" fill="#CEFF1A"/>
<path d="M238.991 164.402C238.991 150.605 241.709 136.943 246.989 124.196C252.268 111.45 260.007 99.8679 269.763 90.112C279.519 80.3562 291.101 72.6175 303.847 67.3376C316.594 62.0578 330.256 59.3403 344.053 59.3403C357.849 59.3403 371.511 62.0578 384.258 67.3376C397.004 72.6175 408.586 80.3562 418.342 90.1121C428.098 99.8679 435.837 111.45 441.116 124.196C446.396 136.943 449.114 150.605 449.114 164.402L344.053 164.402L238.991 164.402Z" fill="#FB4812"/>
<path d="M210.781 180.939C210.781 194.736 208.063 208.397 202.783 221.144C197.504 233.891 189.765 245.472 180.009 255.228C170.253 264.984 158.671 272.723 145.925 278.003C133.178 283.283 119.516 286 105.719 286C91.9226 286 78.2608 283.283 65.5142 278.003C52.7676 272.723 41.1857 264.984 31.4299 255.228C21.6741 245.472 13.9353 233.891 8.6555 221.144C3.37569 208.397 0.658203 194.736 0.658203 180.939L105.719 180.939L210.781 180.939Z" fill="#FB4812"/>
<path d="M238.991 164.401C238.991 174.749 241.029 184.995 244.989 194.555C248.949 204.115 254.753 212.802 262.07 220.118C269.387 227.435 278.073 233.239 287.633 237.199C297.193 241.159 307.44 243.197 317.787 243.197C328.135 243.197 338.381 241.159 347.941 237.199C357.501 233.239 366.188 227.435 373.504 220.118C380.821 212.802 386.625 204.115 390.585 194.555C394.545 184.995 396.583 174.749 396.583 164.401L317.787 164.401L238.991 164.401Z" fill="#FB8212"/>
<rect width="40.8571" height="7.78231" transform="matrix(-1 0 0 1 256.502 45.7212)" fill="black"/>
</svg>
