<svg width="463" height="445" viewBox="0 0 463 445" fill="none" xmlns="http://www.w3.org/2000/svg">
<rect x="163.114" y="102" width="167" height="343" fill="#00FFC2"/>
<path d="M163.114 102C178.872 102 194.477 105.104 209.036 111.134C223.595 117.165 236.824 126.004 247.967 137.147C259.11 148.29 267.949 161.519 273.979 176.078C280.01 190.637 283.114 206.241 283.114 222C283.114 237.759 280.01 253.363 273.979 267.922C267.949 282.481 259.11 295.71 247.967 306.853C236.824 317.996 223.595 326.835 209.036 332.866C194.477 338.896 178.872 342 163.114 342L163.114 222L163.114 102Z" fill="#EFFF36"/>
<path d="M220.114 273C220.114 282.061 218.329 291.034 214.861 299.405C211.394 307.777 206.311 315.383 199.904 321.79C193.497 328.198 185.89 333.28 177.519 336.748C169.147 340.215 160.175 342 151.114 342C142.053 342 133.08 340.215 124.709 336.748C116.337 333.28 108.731 328.198 102.323 321.79C95.9161 315.383 90.8336 307.777 87.3661 299.405C83.8985 291.034 82.1138 282.061 82.1138 273L151.114 273L220.114 273Z" fill="#FB8212"/>
<path fill-rule="evenodd" clip-rule="evenodd" d="M215.159 172.5L195.114 192.545L199.568 197L219.614 176.955L239.659 197L244.113 192.545L224.068 172.5L244.114 152.455L239.659 148L219.614 168.046L199.568 148L195.113 152.455L215.159 172.5Z" fill="black"/>
<path d="M0.11377 273C0.113771 258.555 2.95901 244.251 8.48703 230.905C14.015 217.559 22.1176 205.433 32.332 195.218C42.5465 185.004 54.6728 176.901 68.0186 171.373C81.3644 165.845 95.6684 163 110.114 163C124.559 163 138.863 165.845 152.209 171.373C165.555 176.901 177.681 185.004 187.896 195.218C198.11 205.433 206.213 217.559 211.741 230.905C217.269 244.251 220.114 258.555 220.114 273L110.114 273L0.11377 273Z" fill="#FB4812"/>
</svg>
