<svg width="595" height="440" viewBox="0 0 595 440" fill="none" xmlns="http://www.w3.org/2000/svg">
<rect x="110" y="110" width="110" height="110" fill="#FB4712"/>
<rect x="220" width="220" height="220" fill="#00FFC2"/>
<path d="M220 220C249.174 220 277.153 208.411 297.782 187.782C318.411 167.153 330 139.174 330 110C330 80.8262 318.411 52.8473 297.782 32.2182C277.153 11.5893 249.174 -8.19274e-06 220 -5.64229e-06L220 110L220 220Z" fill="#EFFF36"/>
<path d="M220 220C220 249.174 231.589 277.153 252.218 297.782C272.847 318.411 300.826 330 330 330C359.174 330 387.153 318.411 407.782 297.782C428.411 277.153 440 249.174 440 220L330 220L220 220Z" fill="#00FFC2"/>
<path fill-rule="evenodd" clip-rule="evenodd" d="M267.5 69.9545L251.545 54L248 57.5455L263.955 73.5L248 89.4546L251.545 93L267.5 77.0455L283.455 93L287 89.4545L271.045 73.5L287 57.5455L283.455 54L267.5 69.9545Z" fill="black"/>
<path d="M0 220C2.55046e-06 190.826 11.5893 162.847 32.2183 142.218C52.8473 121.589 80.8262 110 110 110L110 220L0 220Z" fill="#FB4712"/>
<path d="M220 220C220 236.218 215.191 252.072 206.181 265.557C197.17 279.042 184.364 289.552 169.38 295.758C154.396 301.965 137.909 303.588 122.003 300.424C106.096 297.26 91.4851 289.451 80.0172 277.983L138 220L220 220Z" fill="#FB8212"/>
</svg>
