<svg width="449" height="286" viewBox="0 0 449 286" fill="none" xmlns="http://www.w3.org/2000/svg">
<rect x="131" width="160" height="286" fill="#5555F4"/>
<path d="M131 1.70526e-06C149.779 3.12304e-06 168.374 3.69881 185.724 10.8852C203.073 18.0717 218.838 28.605 232.116 41.8837C245.395 55.1625 255.928 70.9267 263.115 88.2763C270.301 105.626 274 124.221 274 143C274 161.779 270.301 180.374 263.115 197.724C255.928 215.073 245.395 230.838 232.116 244.116C218.837 257.395 203.073 267.928 185.724 275.115C168.374 282.301 149.779 286 131 286L131 143L131 1.70526e-06Z" fill="#EFFF36"/>
<path d="M21 204C21 174.826 32.5893 146.847 53.2183 126.218C73.8473 105.589 101.826 94 131 94V204L21 204Z" fill="#FB4712"/>
<path d="M131 286C109.252 286 88.3952 277.361 73.0172 261.983C57.6393 246.605 49 225.748 49 204L131 204L131 286Z" fill="#FB8212"/>
<rect x="170" y="94" width="40.8571" height="7.78231" fill="black"/>
</svg>
