<svg width="1536" height="269" viewBox="0 0 1536 269" fill="none" xmlns="http://www.w3.org/2000/svg">
<path d="M0 144C0 105.809 15.1714 69.1819 42.1766 42.1766C69.1819 15.1714 105.809 0 144 0C182.191 0 218.818 15.1714 245.823 42.1766C272.829 69.1819 288 105.809 288 144" fill="white"/>
<path d="M287.76 162.12C287.486 190.553 275.999 217.728 255.797 237.738C235.594 257.747 208.309 268.971 179.875 268.971C151.441 268.971 124.156 257.747 103.953 237.738C83.7507 217.728 72.2637 190.553 71.99 162.12" fill="white"/>
<path d="M396 234.09V54H482.82C540.62 54 577.17 87.6 577.17 144.05C577.17 200.5 540.62 234.05 482.82 234.05L396 234.09ZM436.32 90.29V197.81H482.82C519.38 197.81 534.16 187.32 534.16 144.05C534.16 100.78 519.38 90.29 482.82 90.29H436.32Z" fill="white"/>
<path d="M589.64 166.89C589.64 123.89 620.55 96.7402 666.52 96.7402C712.49 96.7402 743.4 123.88 743.4 166.89C743.4 209.36 712.48 236.79 666.52 236.79C620.56 236.79 589.64 209.36 589.64 166.89ZM703.34 166.89C703.34 143.24 693.67 132.22 666.52 132.22C639.1 132.22 629.69 143.22 629.69 166.89C629.69 190.56 639.1 201 666.52 201C693.67 201 703.34 190.55 703.34 166.89Z" fill="white"/>
<path d="M755 166.89C755 123.89 777.85 96.74 817.9 96.74C849.9 96.74 866.28 112.6 870.9 135.18H873.32V54H913.63V234.09H876V196.73H873.84C868.73 223.35 850.99 236.79 820.08 236.79C778.16 236.79 755 209.36 755 166.89ZM833.8 200C859.34 200 873.32 191.13 873.32 167.74V165.6C873.32 142.21 859.6 133.6 833.8 133.6C808 133.6 795.9 142.2 795.9 166.92C795.9 191.36 808 200 833.8 200Z" fill="white"/>
<path d="M929.86 166.89C929.86 123.89 960.77 96.7402 1006.74 96.7402C1052.71 96.7402 1083.61 123.88 1083.61 166.89C1083.61 209.36 1052.7 236.79 1006.74 236.79C960.78 236.79 929.86 209.36 929.86 166.89ZM1043.56 166.89C1043.56 143.24 1033.88 132.22 1006.74 132.22C979.31 132.22 969.91 143.22 969.91 166.89C969.91 190.56 979.31 201.03 1006.74 201.03C1033.88 201 1043.56 190.55 1043.56 166.89Z" fill="white"/>
<path d="M1100.11 234.09V99.4302H1137.47V140.82H1139.88C1143.38 118.25 1159.51 96.7402 1194.72 96.7402C1231.55 96.7402 1249.01 120.39 1249.01 150.22V234.09H1208.7V163.67C1208.7 142.17 1199.82 133.02 1175.09 133.02C1149.56 133.02 1140.42 143.24 1140.42 166.09V234.09H1100.11Z" fill="white"/>
<path d="M1269.27 183.3V99.4297H1309.58V169.86C1309.58 191.62 1318.72 200.76 1344.26 200.76C1370.6 200.76 1380.01 190.55 1380.01 167.7V99.4297H1420.33V234.09H1382.69V193H1380.55C1377.06 215.58 1360.65 236.82 1325.18 236.82C1287.28 236.79 1269.27 213.4 1269.27 183.3Z" fill="white"/>
<path d="M1502.67 234.09C1471.22 234.09 1452.14 219.31 1452.14 185.44V132.76H1430.9V99.4303H1452.14V73.3604H1492.46V99.4303H1536V132.76H1492.46V180.88C1492.46 194.32 1497.57 197.81 1511.8 197.81H1536V234.09H1502.67Z" fill="white"/>
</svg>
