<svg width="440" height="440" viewBox="0 0 440 440" fill="none" xmlns="http://www.w3.org/2000/svg">
<path d="M140.5 74C163.022 74 185.323 78.436 206.13 87.0547C226.938 95.6734 245.844 108.306 261.769 124.231C277.694 140.156 290.327 159.062 298.945 179.87C307.564 200.677 312 222.978 312 245.5C312 268.022 307.564 290.323 298.945 311.13C290.327 331.938 277.694 350.844 261.769 366.769C245.844 382.694 226.938 395.327 206.13 403.945C185.323 412.564 163.022 417 140.5 417L140.5 245.5L140.5 74Z" fill="#EFFF36"/>
<rect x="184" y="140" width="27" height="14" fill="black"/>
<path d="M198 273C198 282.061 196.215 291.034 192.748 299.405C189.28 307.777 184.198 315.383 177.79 321.79C171.383 328.198 163.777 333.28 155.405 336.748C147.034 340.215 138.061 342 129 342C119.939 342 110.966 340.215 102.595 336.748C94.2234 333.28 86.6169 328.198 80.2096 321.79C73.8024 315.383 68.7199 307.777 65.2523 299.405C61.7847 291.034 60 282.061 60 273L129 273L198 273Z" fill="#FB8212"/>
<path d="M25 273.5C25 262.141 27.2374 250.893 31.5844 240.398C35.9315 229.903 42.303 220.368 50.3353 212.335C58.3675 204.303 67.9032 197.931 78.3979 193.584C88.8926 189.237 100.141 187 111.5 187C122.859 187 134.107 189.237 144.602 193.584C155.097 197.931 164.632 204.303 172.665 212.335C180.697 220.368 187.069 229.903 191.416 240.398C195.763 250.893 198 262.141 198 273.5L111.5 273.5L25 273.5Z" fill="#FB4812"/>
</svg>
