<svg width="249" height="385" viewBox="0 0 249 385" fill="none" xmlns="http://www.w3.org/2000/svg">
<rect width="165" height="220" transform="matrix(-1 0 0 1 165 0)" fill="#FB8212"/>
<path d="M165 385C143.332 385 121.876 380.732 101.857 372.44C81.8385 364.148 63.649 351.994 48.3274 336.673C33.0057 321.351 20.8519 303.161 12.5599 283.143C4.26786 263.124 6.26524e-06 241.668 7.21238e-06 220L165 220L165 385Z" fill="#FB8212"/>
<path d="M0.0312347 385C21.6993 385 43.1553 380.732 63.174 372.44C83.1927 364.148 101.382 351.994 116.704 336.673C132.026 321.351 144.179 303.161 152.471 283.143C160.763 263.124 165.031 241.668 165.031 220L0.0312428 220L0.0312347 385Z" fill="#FB4812"/>
<path d="M165 220C135.826 220 107.847 208.411 87.2183 187.782C66.5893 167.153 55 139.174 55 110C55 80.8262 66.5893 52.8473 87.2183 32.2182C107.847 11.5893 135.826 -8.19274e-06 165 -5.64229e-06L165 110L165 220Z" fill="#EFFF36"/>
<rect x="116" y="74" width="27" height="14" fill="black"/>
<path d="M165 74C180.096 74 194.926 77.9737 208 85.5218C221.074 93.0699 231.93 103.926 239.478 117L165 160L165 74Z" fill="#FB4812"/>
<path d="M165 220C172.879 220 180.681 218.448 187.961 215.433C195.241 212.417 201.855 207.998 207.426 202.426C212.998 196.855 217.418 190.241 220.433 182.961C223.448 175.681 225 167.879 225 160L165 160L165 220Z" fill="#FB8212"/>
</svg>
