<svg width="64" height="64" viewBox="0 0 64 64" fill="none" xmlns="http://www.w3.org/2000/svg">
<path d="M45 15C47.2091 15 49 16.7909 49 19L49 46C49 48.2091 47.2091 50 45 50L18 50C15.7909 50 14 48.2091 14 46L14 19C14 16.7909 15.7909 15 18 15L45 15Z" fill="#CEFF1A"/>
<path d="M56 26L26 56H56V26Z" fill="#FB6612"/>
<path fill-rule="evenodd" clip-rule="evenodd" d="M49 33V46C49 48.2091 47.2091 50 45 50L32 50L49 33Z" fill="#6637EE"/>
<path d="M8 38L38 8H8V38Z" fill="#FB6612"/>
<path fill-rule="evenodd" clip-rule="evenodd" d="M31 15H18C15.7909 15 14 16.7909 14 19V32L31 15Z" fill="#6637EE"/>
</svg>
