<svg width="42" height="42" viewBox="0 0 42 42" fill="none" xmlns="http://www.w3.org/2000/svg">
<path d="M5.91406 22.3141C5.91406 20.9255 7.03975 19.7998 8.42835 19.7998L33.5712 19.7998C34.9598 19.7998 36.0855 20.9255 36.0855 22.3141V36.1427C36.0855 37.5313 34.9598 38.6569 33.5712 38.6569H8.42835C7.03975 38.6569 5.91406 37.5313 5.91406 36.1427L5.91406 22.3141Z" fill="#CEFF1A"/>
<path d="M9.05713 7.22864C9.05713 5.84004 10.1828 4.71435 11.5714 4.71435L30.4286 4.71435C31.8172 4.71435 32.9428 5.84004 32.9428 7.22864V26.0858C32.9428 27.4744 31.8172 28.6001 30.4286 28.6001L11.5714 28.6001C10.1828 28.6001 9.05713 27.4744 9.05713 26.0858L9.05713 7.22864Z" fill="#6637EE"/>
<path fill-rule="evenodd" clip-rule="evenodd" d="M32.9429 19.8V26.0857C32.9429 27.4743 31.8172 28.6 30.4286 28.6H11.5714C10.1828 28.6 9.05714 27.4743 9.05714 26.0857L9.05714 19.8H32.9429Z" fill="#00FFC2"/>
</svg>
