<svg width="64" height="64" viewBox="0 0 64 64" fill="none" xmlns="http://www.w3.org/2000/svg">
<path d="M47 3C49.2091 3 51 4.79086 51 7L51 37C51 39.2091 49.2091 41 47 41L7 41C4.79086 41 3 39.2091 3 37L3 7C3 4.79086 4.79086 3 7 3L47 3Z" fill="#FB6612"/>
<path d="M57 23C59.2091 23 61 24.7909 61 27L61 57C61 59.2091 59.2091 61 57 61L17 61C14.7909 61 13 59.2091 13 57L13 27C13 24.7909 14.7909 23 17 23L57 23Z" fill="#CEFF1A"/>
<path fill-rule="evenodd" clip-rule="evenodd" d="M51 23V37C51 39.2091 49.2091 41 47 41L13 41V27C13 24.7909 14.7909 23 17 23H51Z" fill="#00FFC2"/>
</svg>
