<svg width="41" height="41" viewBox="0 0 41 41" fill="none" xmlns="http://www.w3.org/2000/svg">
<path d="M20.3716 41.0001C15.037 41.0001 9.92082 38.8809 6.14866 35.1087C2.3765 31.3366 0.257324 26.2204 0.257324 20.8858C0.257324 15.5511 2.3765 10.435 6.14866 6.66282C9.92082 2.89066 15.037 0.771484 20.3716 0.771484L20.3716 20.8858L20.3716 41.0001Z" fill="#00FFC2"/>
<path d="M40.4859 20.8857C40.4859 23.5272 39.9656 26.1427 38.9548 28.5831C37.9439 31.0235 36.4623 33.2409 34.5946 35.1087C32.7268 36.9764 30.5094 38.4581 28.069 39.4689C25.6286 40.4797 23.0131 41 20.3716 41L20.3716 20.8857L40.4859 20.8857Z" fill="#6637EE"/>
<path d="M20.3716 41C15.037 41 9.92082 38.8808 6.14866 35.1087C2.3765 31.3365 0.257324 26.2204 0.257323 20.8857L20.3716 20.8857L20.3716 41Z" fill="#CEFF1A"/>
</svg>
