<svg width="41" height="42" viewBox="0 0 41 42" fill="none" xmlns="http://www.w3.org/2000/svg">
<path d="M20.3716 0.971622C17.7302 0.971622 15.1146 1.49189 12.6742 2.50273C10.2338 3.51357 8.01644 4.99518 6.14866 6.86296C4.28088 8.73074 2.79927 10.9481 1.78843 13.3885C0.777594 15.8289 0.257323 18.4445 0.257323 21.0859C0.257324 23.7274 0.777595 26.3429 1.78843 28.7833C2.79927 31.2237 4.28088 33.4411 6.14866 35.3089C8.01645 37.1766 10.2338 38.6582 12.6742 39.6691C15.1146 40.6799 17.7302 41.2002 20.3716 41.2002L20.3716 21.0859L20.3716 0.971622Z" fill="#6637EE"/>
<path d="M40.4859 0.971622C37.8444 0.971622 35.2288 1.49189 32.7885 2.50273C30.3481 3.51357 28.1307 4.99518 26.2629 6.86296C24.3951 8.73074 22.9135 10.9481 21.9027 13.3885C20.8919 15.8289 20.3716 18.4445 20.3716 21.0859C20.3716 23.7274 20.8919 26.3429 21.9027 28.7833C22.9135 31.2237 24.3951 33.4411 26.2629 35.3089C28.1307 37.1766 30.3481 38.6582 32.7885 39.6691C35.2288 40.6799 37.8444 41.2002 40.4859 41.2002L40.4859 21.0859L40.4859 0.971622Z" fill="#CEFF1A"/>
<path d="M20.3716 21.0859C20.3716 23.7274 20.8919 26.3429 21.9027 28.7833C22.9135 31.2237 24.3951 33.4411 26.2629 35.3089C28.1307 37.1766 30.3481 38.6582 32.7885 39.6691C35.2288 40.6799 37.8444 41.2002 40.4859 41.2002L40.4859 21.0859L20.3716 21.0859Z" fill="#00FFC2"/>
</svg>
