<svg width="64" height="64" viewBox="0 0 64 64" fill="none" xmlns="http://www.w3.org/2000/svg">
<path d="M8 34C8 31.7909 9.79086 30 12 30L52 30C54.2091 30 56 31.7909 56 34L56 56C56 58.2091 54.2091 60 52 60L12 60C9.79086 60 8 58.2091 8 56L8 34Z" fill="#CEFF1A"/>
<path d="M13 10C13 7.79086 14.7909 6 17 6L47 6C49.2091 6 51 7.79086 51 10L51 40C51 42.2091 49.2091 44 47 44L17 44C14.7909 44 13 42.2091 13 40L13 10Z" fill="#6637EE"/>
<path fill-rule="evenodd" clip-rule="evenodd" d="M51 30V40C51 42.2091 49.2091 44 47 44H17C14.7909 44 13 42.2091 13 40V30H51Z" fill="#00FFC2"/>
</svg>
