<svg width="105" height="3002" viewBox="0 0 105 3002" fill="none" xmlns="http://www.w3.org/2000/svg">
<rect x="0.5" y="0.5" width="104" height="3001" rx="4.5" fill="black"/>
<rect x="29.3145" y="30.0571" width="30.1714" height="30.1714" rx="5.02857" fill="#00FFC2"/>
<path d="M49.4287 20L19.2573 50.1714H49.4287V20Z" fill="#E7A6D5"/>
<path fill-rule="evenodd" clip-rule="evenodd" d="M49.4286 30.0571H39.3714L29.3145 40.1141V50.1714H49.4286V30.0571Z" fill="#6637EE"/>
<rect x="29.3145" y="1387.77" width="30.1714" height="30.1714" rx="5.02857" fill="#00FFC2"/>
<path d="M49.4287 1377.71L19.2573 1407.89H49.4287V1377.71Z" fill="#FB6612"/>
<path fill-rule="evenodd" clip-rule="evenodd" d="M49.4286 1387.77H39.3714L29.3145 1397.83V1407.89H49.4286V1387.77Z" fill="#6637EE"/>
<path d="M19.2573 108C19.2573 105.223 21.5087 102.971 24.2859 102.971H38.1145C40.8917 102.971 43.143 105.223 43.143 108V123.085C43.143 125.863 40.8917 128.114 38.1145 128.114H24.2859C21.5087 128.114 19.2573 125.863 19.2573 123.085V108Z" fill="#CEFF1A"/>
<rect x="35.6001" y="87.8857" width="23.8857" height="40.2286" rx="5.02857" fill="#6637EE"/>
<path fill-rule="evenodd" clip-rule="evenodd" d="M40.6224 128.114C37.8481 128.111 35.6001 125.861 35.6001 123.085V102.971H43.143V128.114H40.6224Z" fill="#00FFC2"/>
<path d="M39.3716 196C34.037 196 28.9208 193.881 25.1487 190.109C21.3765 186.337 19.2573 181.22 19.2573 175.886C19.2573 170.551 21.3765 165.435 25.1487 161.663C28.9208 157.891 34.037 155.771 39.3716 155.771V175.886V196Z" fill="#00FFC2"/>
<path d="M59.4859 175.886C59.4859 178.527 58.9656 181.143 57.9548 183.583C56.944 186.023 55.4623 188.241 53.5946 190.109C51.7268 191.976 49.5094 193.458 47.069 194.469C44.6286 195.48 42.0131 196 39.3716 196L39.3716 175.886L59.4859 175.886Z" fill="#6637EE"/>
<path d="M39.3716 196C34.037 196 28.9208 193.881 25.1487 190.109C21.3765 186.337 19.2573 181.22 19.2573 175.886L39.3716 175.886L39.3716 196Z" fill="#CEFF1A"/>
<rect x="19.2573" y="223.657" width="23.8857" height="40.2286" rx="5.02857" fill="#CEFF1A"/>
<rect x="43.1431" y="237.486" width="16.3429" height="12.5714" fill="#6637EE"/>
<path d="M43.1431 237.486L30.5716 250.057H43.1431V237.486Z" fill="#FB6612"/>
<circle cx="33.7145" cy="317.314" r="14.4571" fill="#6637EE"/>
<circle cx="45.0284" cy="306" r="14.4571" fill="#00FFC2"/>
<path fill-rule="evenodd" clip-rule="evenodd" d="M30.8541 303.14C31.7786 302.954 32.735 302.857 33.7141 302.857C41.6986 302.857 48.1713 309.33 48.1713 317.314C48.1713 318.293 48.074 319.25 47.8884 320.174C46.9639 320.36 46.0075 320.457 45.0284 320.457C37.044 320.457 30.5713 313.984 30.5713 306C30.5713 305.021 30.6686 304.064 30.8541 303.14Z" fill="#EFFF36"/>
<rect x="19.2573" y="380.171" width="10.0571" height="19.4857" rx="2.51429" fill="#00FFC2"/>
<rect x="34.3428" y="370.743" width="10.0571" height="28.9143" rx="2.51429" fill="#CEFF1A"/>
<rect x="49.4287" y="359.429" width="10.0571" height="40.2286" rx="2.51429" fill="#5555F4"/>
<rect x="19.2573" y="437.372" width="40.2286" height="20.1143" rx="3.77143" fill="#6637EE"/>
<rect x="46.9141" y="427.314" width="40.2286" height="20.1143" rx="3.77143" transform="rotate(90 46.9141 427.314)" fill="#FB6612"/>
<path fill-rule="evenodd" clip-rule="evenodd" d="M26.7998 457.486L26.7998 437.372H46.9141L46.9141 457.486H26.7998Z" fill="#CEFF1A"/>
<circle cx="33.0859" cy="521.6" r="13.8286" fill="#CEFF1A"/>
<path d="M33.0859 495.2L59.4859 521.6H33.0859V495.2Z" fill="#00FFC2"/>
<path d="M33.0855 507.772C34.9015 507.772 36.6997 508.129 38.3775 508.824C40.0552 509.519 41.5797 510.538 42.8638 511.822C44.1479 513.106 45.1665 514.63 45.8614 516.308C46.5564 517.986 46.9141 519.784 46.9141 521.6L33.0855 521.6L33.0855 507.772Z" fill="#E7A6D5"/>
<rect x="59.4858" y="563.086" width="15.0857" height="40.2286" rx="2.51429" transform="rotate(90 59.4858 563.086)" fill="#00FFC2"/>
<path d="M39.3716 583.2L39.3716 603.314L21.7716 603.314C20.383 603.314 19.2573 602.189 19.2573 600.8L19.2573 585.714C19.2573 584.326 20.383 583.2 21.7716 583.2L39.3716 583.2Z" fill="#EFFF36"/>
<path d="M59.4858 590.743L46.9144 603.314H59.4858V590.743Z" fill="#FB6612"/>
<rect x="43.1431" y="1479.54" width="15.0857" height="40.2286" rx="2.51429" transform="rotate(-180 43.1431 1479.54)" fill="#CEFF1A"/>
<path d="M58.2285 1465.09C58.2285 1470.64 53.7258 1475.14 48.1714 1475.14C42.617 1475.14 38.1142 1470.64 38.1142 1465.09L38.1142 1453.14C38.1142 1447.59 42.617 1443.09 48.1714 1443.09C53.7258 1443.09 58.2285 1447.59 58.2285 1453.14L58.2285 1465.09Z" fill="#E7A6D5"/>
<path fill-rule="evenodd" clip-rule="evenodd" d="M43.1428 1444.97L43.1428 1474.34C40.1367 1472.6 38.1143 1469.35 38.1143 1465.63L38.1143 1453.68C38.1143 1449.96 40.1367 1446.71 43.1428 1444.97Z" fill="#6637EE"/>
<path d="M39.3716 630.972C36.7302 630.972 34.1146 631.492 31.6742 632.503C29.2338 633.514 27.0164 634.995 25.1487 636.863C23.2809 638.731 21.7993 640.948 20.7884 643.389C19.7776 645.829 19.2573 648.444 19.2573 651.086C19.2573 653.727 19.7776 656.343 20.7884 658.783C21.7993 661.224 23.2809 663.441 25.1487 665.309C27.0164 667.177 29.2338 668.658 31.6742 669.669C34.1146 670.68 36.7302 671.2 39.3716 671.2L39.3716 651.086L39.3716 630.972Z" fill="#6637EE"/>
<path d="M59.4859 630.972C56.8444 630.972 54.2288 631.492 51.7885 632.503C49.3481 633.514 47.1307 634.995 45.2629 636.863C43.3951 638.731 41.9135 640.948 40.9027 643.389C39.8919 645.829 39.3716 648.444 39.3716 651.086C39.3716 653.727 39.8919 656.343 40.9027 658.783C41.9135 661.224 43.3951 663.441 45.2629 665.309C47.1307 667.177 49.3481 668.658 51.7885 669.669C54.2288 670.68 56.8444 671.2 59.4859 671.2L59.4859 651.086L59.4859 630.972Z" fill="#CEFF1A"/>
<path d="M39.3716 651.086C39.3716 653.727 39.8919 656.343 40.9027 658.783C41.9135 661.224 43.3951 663.441 45.2629 665.309C47.1307 667.177 49.3481 668.658 51.7885 669.669C54.2288 670.68 56.8444 671.2 59.4859 671.2L59.4859 651.086L39.3716 651.086Z" fill="#00FFC2"/>
<rect x="59.4858" y="710.171" width="28.9143" height="40.2286" rx="5.02857" transform="rotate(90 59.4858 710.171)" fill="#CEFF1A"/>
<rect x="35.6001" y="698.857" width="22.6286" height="6.28571" rx="3.14286" transform="rotate(90 35.6001 698.857)" fill="#6637EE"/>
<rect x="48.7998" y="698.857" width="22.6286" height="6.28571" rx="3.14286" transform="rotate(90 48.7998 698.857)" fill="#6637EE"/>
<path fill-rule="evenodd" clip-rule="evenodd" d="M35.6002 710.171L35.6002 718.343C35.6002 720.079 34.1931 721.486 32.4573 721.486C30.7216 721.486 29.3145 720.079 29.3145 718.343L29.3145 710.171L35.6002 710.171Z" fill="#FB6612"/>
<path fill-rule="evenodd" clip-rule="evenodd" d="M48.7999 710.171L48.7999 718.343C48.7999 720.079 47.3928 721.486 45.657 721.486C43.9213 721.486 42.5142 720.079 42.5142 718.343L42.5142 710.171L48.7999 710.171Z" fill="#FB6612"/>
<path d="M39.3716 1507.2L19.2573 1527.31H39.3716V1507.2Z" fill="#FB6612"/>
<path d="M39.3716 1507.2L59.4859 1527.31H39.3716V1507.2Z" fill="#6637EE"/>
<path d="M39.3716 1527.31L19.2573 1547.43H39.3716V1527.31Z" fill="#00FFC2"/>
<path d="M39.3716 1547.43L59.4859 1527.31H39.3716V1547.43Z" fill="#CEFF1A"/>
<rect x="38.7427" y="834.628" width="15.0857" height="15.0857" rx="2.51429" transform="rotate(90 38.7427 834.628)" fill="#FB6612"/>
<rect x="59.4858" y="854.114" width="16.3429" height="15.0857" rx="2.51429" transform="rotate(90 59.4858 854.114)" fill="#6637EE"/>
<rect x="53.8286" y="840.914" width="22" height="22.6286" rx="2.51429" transform="rotate(90 53.8286 840.914)" fill="#FB6612"/>
<path fill-rule="evenodd" clip-rule="evenodd" d="M53.8285 854.114V860.4C53.8285 861.789 52.7028 862.914 51.3142 862.914H44.3999L44.3999 856.629C44.3999 855.24 45.5256 854.114 46.9142 854.114L53.8285 854.114Z" fill="#00FFC2"/>
<path fill-rule="evenodd" clip-rule="evenodd" d="M38.7431 840.914L38.7431 847.2C38.7431 848.588 37.6174 849.714 36.2288 849.714H31.2002L31.2002 843.428C31.2002 842.04 32.3259 840.914 33.7145 840.914L38.7431 840.914Z" fill="#00FFC2"/>
<rect x="40" y="854.114" width="16.3429" height="20.7429" rx="2.51429" transform="rotate(90 40 854.114)" fill="#CEFF1A"/>
<path fill-rule="evenodd" clip-rule="evenodd" d="M40.0002 862.914H33.7145C32.3259 862.914 31.2002 861.789 31.2002 860.4L31.2002 854.114L37.4859 854.114C38.8745 854.114 40.0002 855.24 40.0002 856.629V862.914Z" fill="#00FFC2"/>
<circle cx="28.6859" cy="1584.51" r="9.42857" fill="#CEFF1A"/>
<circle cx="28.6859" cy="1605.89" r="9.42857" fill="#00FFC2"/>
<circle cx="46.2859" cy="1588.29" r="13.2" fill="#6637EE"/>
<path fill-rule="evenodd" clip-rule="evenodd" d="M33.7603 1592.46C36.3788 1590.79 38.1145 1587.85 38.1145 1584.51C38.1145 1582.61 37.5478 1580.83 36.5734 1579.35C34.4082 1581.7 33.0859 1584.84 33.0859 1588.29C33.0859 1589.75 33.3229 1591.15 33.7603 1592.46Z" fill="#FB6612"/>
<circle cx="50.057" cy="1605.89" r="9.42857" fill="#CEFF1A"/>
<path fill-rule="evenodd" clip-rule="evenodd" d="M55.2251 1598C52.8738 1600.16 49.7343 1601.49 46.2859 1601.49C44.8263 1601.49 43.422 1601.25 42.1094 1600.81C43.7846 1598.19 46.7183 1596.46 50.0574 1596.46C51.9654 1596.46 53.741 1597.02 55.2251 1598Z" fill="#FB6612"/>
<path d="M55.7881 1682.09V1646.74L38.1141 1664.42L55.7881 1682.09Z" fill="#CEFF1A"/>
<path fill-rule="evenodd" clip-rule="evenodd" d="M55.7882 1664.42V1682.09L38.1143 1664.42H55.7882Z" fill="#00FFC2"/>
<path fill-rule="evenodd" clip-rule="evenodd" d="M38.1881 1646.74V1664.42L20.5142 1646.74H38.1881Z" fill="#6637EE"/>
<path fill-rule="evenodd" clip-rule="evenodd" d="M38.1881 1682.02V1664.34L20.5142 1682.02H38.1881Z" fill="#FB6612"/>
<path d="M59.4859 1730.97C59.4859 1726.99 58.3062 1723.1 56.096 1719.8C53.8858 1716.49 50.7444 1713.91 47.069 1712.39C43.3936 1710.87 39.3493 1710.47 35.4475 1711.24C31.5457 1712.02 27.9617 1713.94 25.1487 1716.75C22.3356 1719.56 20.4199 1723.15 19.6438 1727.05C18.8677 1730.95 19.266 1734.99 20.7884 1738.67C22.3108 1742.34 24.8889 1745.49 28.1967 1747.7C31.5045 1749.91 35.3934 1751.09 39.3716 1751.09L39.3716 1741.62C37.2647 1741.62 35.2051 1741 33.4533 1739.83C31.7015 1738.66 30.3361 1736.99 29.5299 1735.05C28.7236 1733.1 28.5126 1730.96 28.9237 1728.89C29.3347 1726.83 30.3493 1724.93 31.8391 1723.44C33.3289 1721.95 35.227 1720.93 37.2934 1720.52C39.3598 1720.11 41.5017 1720.32 43.4482 1721.13C45.3947 1721.94 47.0584 1723.3 48.2289 1725.05C49.3995 1726.81 50.0242 1728.86 50.0242 1730.97L59.4859 1730.97Z" fill="#CEFF1A"/>
<circle cx="39.3713" cy="1730.97" r="10.6857" fill="#6637EE"/>
<path d="M48.8002 972.286C50.1888 972.286 51.3145 973.411 51.3145 974.8L51.3145 993.657C51.3145 995.046 50.1888 996.171 48.8002 996.171L23.6573 996.171C22.2687 996.171 21.143 995.046 21.143 993.657L21.143 974.8C21.143 973.411 22.2687 972.286 23.6573 972.286L48.8002 972.286Z" fill="#FB6612"/>
<path d="M55.0858 984.857C56.4744 984.857 57.6001 985.983 57.6001 987.371L57.6001 1006.23C57.6001 1007.62 56.4744 1008.74 55.0858 1008.74L29.943 1008.74C28.5544 1008.74 27.4287 1007.62 27.4287 1006.23L27.4287 987.371C27.4287 985.983 28.5544 984.857 29.943 984.857L55.0858 984.857Z" fill="#CEFF1A"/>
<path fill-rule="evenodd" clip-rule="evenodd" d="M51.3144 984.857V993.657C51.3144 995.046 50.1887 996.171 48.8001 996.171L27.4287 996.171L27.4287 987.371C27.4287 985.983 28.5544 984.857 29.943 984.857L51.3144 984.857Z" fill="#00FFC2"/>
<path d="M55.7142 768C57.1028 768 58.2285 769.126 58.2285 770.514L58.2285 789.371C58.2285 790.76 57.1028 791.886 55.7142 791.886L30.5714 791.886C29.1828 791.886 28.0571 790.76 28.0571 789.371L28.0571 770.514C28.0571 769.126 29.1828 768 30.5714 768L55.7142 768Z" fill="#E7A6D5"/>
<path d="M42.5145 777.429C43.9031 777.429 45.0288 778.554 45.0288 779.943L45.0288 798.8C45.0288 800.189 43.9031 801.314 42.5145 801.314L24.286 801.314C22.8973 801.314 21.7717 800.189 21.7717 798.8L21.7717 779.943C21.7717 778.554 22.8974 777.429 24.286 777.429L42.5145 777.429Z" fill="#6637EE"/>
<path fill-rule="evenodd" clip-rule="evenodd" d="M50.0573 785.6C55.6118 785.6 60.1145 790.103 60.1145 795.657C60.1145 801.212 55.6117 805.714 50.0573 805.714H41.2573C35.7029 805.714 31.2002 801.212 31.2002 795.657C31.2002 790.103 35.7029 785.6 41.2573 785.6L50.0573 785.6Z" fill="#00FFC2"/>
<path d="M53.2001 1043.31C54.5887 1043.31 55.7144 1044.44 55.7144 1045.83L55.7144 1074.11C55.7144 1075.5 54.5887 1076.63 53.2001 1076.63L40.0001 1076.63C38.6115 1076.63 37.4858 1075.5 37.4858 1074.11L37.4858 1045.83C37.4858 1044.44 38.6115 1043.31 40.0001 1043.31L53.2001 1043.31Z" fill="#FB6612"/>
<circle cx="35.2859" cy="1059.97" r="12.2571" fill="#6637EE"/>
<path fill-rule="evenodd" clip-rule="evenodd" d="M37.4858 1072.03L37.4858 1047.91C43.2054 1048.95 47.543 1053.95 47.543 1059.97C47.543 1065.99 43.2054 1071 37.4858 1072.03Z" fill="#00FFC2"/>
<circle cx="40.0002" cy="1120.63" r="10.6857" fill="#6637EE"/>
<circle cx="45.6569" cy="1131.94" r="10.6857" fill="#00FFC2"/>
<circle cx="34.3429" cy="1131.94" r="10.6857" fill="#CEFF1A"/>
<path fill-rule="evenodd" clip-rule="evenodd" d="M39.9998 1141.01C43.0196 1139.12 45.0283 1135.77 45.0283 1131.94C45.0283 1128.12 43.0196 1124.76 39.9998 1122.88C36.9799 1124.76 34.9712 1128.12 34.9712 1131.94C34.9712 1135.77 36.9799 1139.12 39.9998 1141.01Z" fill="#FB6612"/>
<path d="M48.1713 1183.49C49.5599 1183.49 50.6855 1184.61 50.6855 1186L50.6855 1202.97C50.6855 1204.36 49.5599 1205.49 48.1713 1205.49L31.1998 1205.49C29.8112 1205.49 28.6855 1204.36 28.6855 1202.97L28.6855 1186C28.6855 1184.61 29.8112 1183.49 31.1998 1183.49L48.1713 1183.49Z" fill="#CEFF1A"/>
<path d="M55.0859 1190.4L36.2288 1209.26H55.0859V1190.4Z" fill="#FB6612"/>
<path fill-rule="evenodd" clip-rule="evenodd" d="M50.6858 1194.8L50.6858 1202.97C50.6858 1204.36 49.5601 1205.49 48.1715 1205.49L40 1205.49L50.6858 1194.8Z" fill="#6637EE"/>
<path d="M24.9141 1197.94L43.7712 1179.09H24.9141V1197.94Z" fill="#FB6612"/>
<path fill-rule="evenodd" clip-rule="evenodd" d="M39.3713 1183.49L31.1998 1183.49C29.8112 1183.49 28.6855 1184.61 28.6855 1186L28.6855 1194.17L39.3713 1183.49Z" fill="#6637EE"/>
<path d="M24.9141 1263.31C24.9141 1261.93 26.0397 1260.8 27.4283 1260.8H52.5712C53.9598 1260.8 55.0855 1261.93 55.0855 1263.31V1277.14C55.0855 1278.53 53.9598 1279.66 52.5712 1279.66H27.4283C26.0397 1279.66 24.9141 1278.53 24.9141 1277.14L24.9141 1263.31Z" fill="#CEFF1A"/>
<path d="M28.0571 1248.23C28.0571 1246.84 29.1828 1245.71 30.5714 1245.71H49.4286C50.8172 1245.71 51.9428 1246.84 51.9428 1248.23V1267.09C51.9428 1268.47 50.8172 1269.6 49.4286 1269.6H30.5714C29.1828 1269.6 28.0571 1268.47 28.0571 1267.09L28.0571 1248.23Z" fill="#6637EE"/>
<path fill-rule="evenodd" clip-rule="evenodd" d="M51.9428 1260.8V1267.09C51.9428 1268.47 50.8172 1269.6 49.4286 1269.6H30.5714C29.1828 1269.6 28.0571 1268.47 28.0571 1267.09L28.0571 1260.8H51.9428Z" fill="#00FFC2"/>
<circle cx="40.0001" cy="1329.94" r="12.5714" fill="#FB6612"/>
<path d="M21.7715 1324.91C21.7715 1323.53 22.8972 1322.4 24.2858 1322.4H34.3429C35.7315 1322.4 36.8572 1323.53 36.8572 1324.91V1334.97C36.8572 1336.36 35.7315 1337.49 34.3429 1337.49H24.2858C22.8972 1337.49 21.7715 1336.36 21.7715 1334.97L21.7715 1324.91Z" fill="#00FFC2"/>
<path fill-rule="evenodd" clip-rule="evenodd" d="M29.9421 1337.49C28.3639 1335.38 27.4287 1332.77 27.4287 1329.94C27.4287 1327.11 28.3639 1324.5 29.9421 1322.4H34.343C35.7316 1322.4 36.8573 1323.53 36.8573 1324.91V1334.97C36.8573 1336.36 35.7316 1337.49 34.343 1337.49H29.9421Z" fill="#CEFF1A"/>
<path d="M43.7715 1324.91C43.7715 1323.53 44.8972 1322.4 46.2858 1322.4H56.3429C57.7315 1322.4 58.8572 1323.53 58.8572 1324.91V1334.97C58.8572 1336.36 57.7315 1337.49 56.3429 1337.49H46.2858C44.8972 1337.49 43.7715 1336.36 43.7715 1334.97L43.7715 1324.91Z" fill="#00FFC2"/>
<path fill-rule="evenodd" clip-rule="evenodd" d="M50.0581 1337.49C51.6363 1335.38 52.5714 1332.77 52.5714 1329.94C52.5714 1327.11 51.6362 1324.5 50.058 1322.4H46.2858C44.8972 1322.4 43.7715 1323.53 43.7715 1324.91V1334.97C43.7715 1336.36 44.8972 1337.49 46.2858 1337.49H50.0581Z" fill="#CEFF1A"/>
<rect width="23.8857" height="20.7429" rx="2.51429" transform="matrix(-4.37114e-08 -1 -1 4.37114e-08 56.9712 932.686)" fill="#CEFF1A"/>
<rect width="15.0857" height="16.9714" rx="2.51429" transform="matrix(-5.36458e-08 -1 -1 3.56167e-08 62 917.6)" fill="#6637EE"/>
<path fill-rule="evenodd" clip-rule="evenodd" d="M56.9712 917.6V911.314C56.9712 909.926 55.8456 908.8 54.457 908.8H45.0283L45.0283 915.086C45.0283 916.474 46.154 917.6 47.5426 917.6L56.9712 917.6Z" fill="#00FFC2"/>
<rect width="15.0857" height="16.9714" rx="2.51429" transform="matrix(-4.37114e-08 -1 -1 4.37114e-08 43.7715 938.971)" fill="#E7A6D5"/>
<path fill-rule="evenodd" clip-rule="evenodd" d="M43.7714 932.686L43.7714 926.4C43.7714 925.011 42.6457 923.886 41.2571 923.886H36.2285L36.2285 930.171C36.2285 931.56 37.3542 932.686 38.7428 932.686L43.7714 932.686Z" fill="#00FFC2"/>
<circle cx="39.3716" cy="1798.86" r="18.2286" fill="#00FFC2"/>
<path fill-rule="evenodd" clip-rule="evenodd" d="M21.4997 1795.25C22.6654 1795.02 23.8712 1794.89 25.1057 1794.89C35.1731 1794.89 43.3343 1803.06 43.3343 1813.12C43.3343 1814.36 43.2115 1815.56 42.9776 1816.73C41.812 1816.96 40.6061 1817.09 39.3716 1817.09C29.3043 1817.09 21.1431 1808.92 21.1431 1798.86C21.1431 1797.62 21.2658 1796.42 21.4997 1795.25Z" fill="#8455FF"/>
<rect x="0.5" y="0.5" width="104" height="3001" rx="4.5" stroke="#7B61FF" stroke-dasharray="10 5"/>
</svg>
