<svg width="64" height="64" viewBox="0 0 64 64" fill="none" xmlns="http://www.w3.org/2000/svg">
<circle cx="32" cy="32" r="20" fill="#FB6612"/>
<path d="M3 24C3 21.7909 4.79086 20 7 20L23 20C25.2091 20 27 21.7909 27 24L27 40C27 42.2091 25.2091 44 23 44H7C4.79086 44 3 42.2091 3 40L3 24Z" fill="#00FFC2"/>
<path fill-rule="evenodd" clip-rule="evenodd" d="M15.9985 44C13.4878 40.6574 12 36.5024 12 32C12 27.4976 13.4878 23.3426 15.9985 20H23C25.2091 20 27 21.7909 27 24V40C27 42.2091 25.2091 44 23 44H15.9985Z" fill="#CEFF1A"/>
<path d="M38 24C38 21.7909 39.7909 20 42 20L58 20C60.2091 20 62 21.7909 62 24V40C62 42.2091 60.2091 44 58 44H42C39.7909 44 38 42.2091 38 40L38 24Z" fill="#00FFC2"/>
<path fill-rule="evenodd" clip-rule="evenodd" d="M48.0015 44C50.5122 40.6574 52 36.5024 52 32C52 27.4976 50.5122 23.3426 48.0015 20H42C39.7909 20 38 21.7909 38 24V40C38 42.2091 39.7909 44 42 44H48.0015Z" fill="#CEFF1A"/>
</svg>
