<svg width="42" height="41" viewBox="0 0 42 41" fill="none" xmlns="http://www.w3.org/2000/svg">
<rect x="24.1431" y="40.543" width="15.0857" height="40.2286" rx="2.51429" transform="rotate(-180 24.1431 40.543)" fill="#CEFF1A"/>
<path d="M39.2285 26.0859C39.2285 31.6403 34.7258 36.1431 29.1714 36.1431V36.1431C23.617 36.1431 19.1142 31.6403 19.1142 26.0859L19.1142 14.1431C19.1142 8.58866 23.617 4.08592 29.1714 4.08592V4.08592C34.7258 4.08592 39.2285 8.58866 39.2285 14.1431L39.2285 26.0859Z" fill="#E7A6D5"/>
<path fill-rule="evenodd" clip-rule="evenodd" d="M24.1429 5.97136L24.1429 35.3376C21.1368 33.5986 19.1143 30.3485 19.1143 26.6259L19.1143 14.683C19.1143 10.9605 21.1368 7.71029 24.1429 5.97136Z" fill="#6637EE"/>
</svg>
