<svg width="41" height="41" viewBox="0 0 41 41" fill="none" xmlns="http://www.w3.org/2000/svg">
<path d="M29.8002 2.28564C31.1888 2.28564 32.3145 3.41133 32.3145 4.79993L32.3145 23.6571C32.3145 25.0457 31.1888 26.1714 29.8002 26.1714L4.65731 26.1714C3.26871 26.1714 2.14302 25.0457 2.14302 23.6571L2.14302 4.79993C2.14302 3.41132 3.26871 2.28564 4.65731 2.28564L29.8002 2.28564Z" fill="#FB6612"/>
<path d="M36.0858 14.8569C37.4744 14.8569 38.6001 15.9826 38.6001 17.3712L38.6001 36.2284C38.6001 37.617 37.4744 38.7427 36.0858 38.7427L10.943 38.7426C9.55435 38.7426 8.42867 37.617 8.42867 36.2284L8.42867 17.3712C8.42867 15.9826 9.55435 14.8569 10.943 14.8569L36.0858 14.8569Z" fill="#CEFF1A"/>
<path fill-rule="evenodd" clip-rule="evenodd" d="M32.3143 14.8571V23.6571C32.3143 25.0457 31.1886 26.1714 29.8 26.1714L8.42857 26.1714L8.42857 17.3714C8.42857 15.9828 9.55425 14.8571 10.9429 14.8571L32.3143 14.8571Z" fill="#00FFC2"/>
</svg>
