<svg width="105" height="2264" viewBox="0 0 105 2264" fill="none" xmlns="http://www.w3.org/2000/svg">
<rect x="0.5" y="0.5" width="104" height="2263" rx="4.5" fill="black"/>
<rect x="36" y="36" width="48" height="48" rx="8" fill="#00FFC2"/>
<path d="M68 20L20 68H68V20Z" fill="#FB6612"/>
<path fill-rule="evenodd" clip-rule="evenodd" d="M68 36H52L36 52V68H68V36Z" fill="#6637EE"/>
<path d="M20 160C20 155.582 23.5817 152 28 152H50C54.4183 152 58 155.582 58 160V184C58 188.418 54.4183 192 50 192H28C23.5817 192 20 188.418 20 184V160Z" fill="#CEFF1A"/>
<rect x="46" y="128" width="38" height="64" rx="8" fill="#6637EE"/>
<path fill-rule="evenodd" clip-rule="evenodd" d="M54 192H58V152H46V184C46 188.418 49.5817 192 54 192Z" fill="#00FFC2"/>
<path d="M52 300C43.5131 300 35.3737 296.629 29.3726 290.627C23.3714 284.626 20 276.487 20 268C20 259.513 23.3714 251.374 29.3726 245.373C35.3737 239.371 43.5131 236 52 236L52 268L52 300Z" fill="#00FFC2"/>
<path d="M84 268C84 272.202 83.1723 276.363 81.5641 280.246C79.956 284.128 77.5989 287.656 74.6274 290.627C71.6559 293.599 68.1283 295.956 64.2459 297.564C60.3634 299.172 56.2023 300 52 300L52 268L84 268Z" fill="#6637EE"/>
<path d="M52 300C43.5131 300 35.3737 296.629 29.3726 290.627C23.3714 284.626 20 276.487 20 268L52 268L52 300Z" fill="#CEFF1A"/>
<rect x="20" y="344" width="38" height="64" rx="8" fill="#CEFF1A"/>
<rect x="58" y="366" width="26" height="20" fill="#6637EE"/>
<path d="M58 366L38 386H58V366Z" fill="#FB6612"/>
<circle cx="43" cy="493" r="23" fill="#6637EE"/>
<circle cx="61" cy="475" r="23" fill="#00FFC2"/>
<path fill-rule="evenodd" clip-rule="evenodd" d="M38.45 470.45C39.9208 470.155 41.4423 470 43 470C55.7025 470 66 480.297 66 493C66 494.558 65.8451 496.079 65.55 497.55C64.0792 497.845 62.5577 498 61 498C48.2975 498 38 487.703 38 475C38 473.442 38.1548 471.921 38.45 470.45Z" fill="#EFFF36"/>
<rect x="20" y="593" width="16" height="31" rx="4" fill="#00FFC2"/>
<rect x="44" y="578" width="16" height="46" rx="4" fill="#CEFF1A"/>
<rect x="68" y="560" width="16" height="64" rx="4" fill="#5555F4"/>
<rect x="20" y="684" width="64" height="32" rx="6" fill="#6637EE"/>
<rect x="64" y="668" width="64" height="32" rx="6" transform="rotate(90 64 668)" fill="#FB6612"/>
<path fill-rule="evenodd" clip-rule="evenodd" d="M32 716L32 684H64L64 716H32Z" fill="#CEFF1A"/>
<circle cx="42" cy="818" r="22" fill="#CEFF1A"/>
<path d="M42 776L84 818H42V776Z" fill="#00FFC2"/>
<path d="M42 796C44.8891 796 47.7499 796.569 50.419 797.675C53.0882 798.78 55.5135 800.401 57.5564 802.444C59.5992 804.487 61.2197 806.912 62.3254 809.581C63.431 812.25 64 815.111 64 818L42 818L42 796Z" fill="#FB6612"/>
<rect x="84" y="884" width="24" height="64" rx="4" transform="rotate(90 84 884)" fill="#00FFC2"/>
<path d="M52 916L52 948L24 948C21.7909 948 20 946.209 20 944L20 920C20 917.791 21.7909 916 24 916L52 916Z" fill="#EFFF36"/>
<path d="M84 928L64 948H84V928Z" fill="#FB6612"/>
<path d="M52 992C47.7977 992 43.6365 992.828 39.7541 994.436C35.8717 996.044 32.3441 998.401 29.3726 1001.37C26.4011 1004.34 24.044 1007.87 22.4359 1011.75C20.8277 1015.64 20 1019.8 20 1024C20 1028.2 20.8277 1032.36 22.4359 1036.25C24.044 1040.13 26.4011 1043.66 29.3726 1046.63C32.3441 1049.6 35.8717 1051.96 39.7541 1053.56C43.6366 1055.17 47.7977 1056 52 1056L52 1024L52 992Z" fill="#6637EE"/>
<path d="M84 992C79.7977 992 75.6365 992.828 71.7541 994.436C67.8717 996.044 64.3441 998.401 61.3726 1001.37C58.4011 1004.34 56.044 1007.87 54.4359 1011.75C52.8277 1015.64 52 1019.8 52 1024C52 1028.2 52.8277 1032.36 54.4359 1036.25C56.044 1040.13 58.4011 1043.66 61.3726 1046.63C64.3441 1049.6 67.8717 1051.96 71.7541 1053.56C75.6366 1055.17 79.7977 1056 84 1056L84 1024L84 992Z" fill="#CEFF1A"/>
<path d="M52 1024C52 1028.2 52.8277 1032.36 54.4359 1036.25C56.044 1040.13 58.4011 1043.66 61.3726 1046.63C64.3441 1049.6 67.8717 1051.96 71.7541 1053.56C75.6366 1055.17 79.7977 1056 84 1056L84 1024L52 1024Z" fill="#00FFC2"/>
<rect x="84" y="1118" width="46" height="64" rx="8" transform="rotate(90 84 1118)" fill="#CEFF1A"/>
<rect x="46" y="1100" width="36" height="10" rx="5" transform="rotate(90 46 1100)" fill="#6637EE"/>
<rect x="67" y="1100" width="36" height="10" rx="5" transform="rotate(90 67 1100)" fill="#6637EE"/>
<path fill-rule="evenodd" clip-rule="evenodd" d="M46 1118L46 1131C46 1133.76 43.7614 1136 41 1136C38.2386 1136 36 1133.76 36 1131V1118H46Z" fill="#FB6612"/>
<path fill-rule="evenodd" clip-rule="evenodd" d="M67 1118L67 1131C67 1133.76 64.7614 1136 62 1136C59.2386 1136 57 1133.76 57 1131V1118H67Z" fill="#FB6612"/>
<path d="M52 1208L20 1240H52V1208Z" fill="#FB6612"/>
<path d="M52 1208L84 1240H52V1208Z" fill="#6637EE"/>
<path d="M52 1240L20 1272H52V1240Z" fill="#00FFC2"/>
<path d="M52 1272L84 1240H52V1272Z" fill="#CEFF1A"/>
<rect x="51" y="1316" width="24" height="24" rx="4" transform="rotate(90 51 1316)" fill="#FB6612"/>
<rect x="84" y="1347" width="26" height="24" rx="4" transform="rotate(90 84 1347)" fill="#6637EE"/>
<rect x="75" y="1326" width="35" height="36" rx="4" transform="rotate(90 75 1326)" fill="#FB6612"/>
<path fill-rule="evenodd" clip-rule="evenodd" d="M75 1347L75 1357C75 1359.21 73.2091 1361 71 1361L60 1361V1351C60 1348.79 61.7909 1347 64 1347H75Z" fill="#00FFC2"/>
<path fill-rule="evenodd" clip-rule="evenodd" d="M51 1326L51 1336C51 1338.21 49.2091 1340 47 1340H39V1330C39 1327.79 40.7909 1326 43 1326H51Z" fill="#00FFC2"/>
<rect x="53" y="1347" width="26" height="33" rx="4" transform="rotate(90 53 1347)" fill="#CEFF1A"/>
<path fill-rule="evenodd" clip-rule="evenodd" d="M53 1361L43 1361C40.7909 1361 39 1359.21 39 1357V1347H49C51.2091 1347 53 1348.79 53 1351V1361Z" fill="#00FFC2"/>
<rect x="51" y="2180" width="24" height="24" rx="4" transform="rotate(90 51 2180)" fill="#FB6612"/>
<rect x="84" y="2211" width="26" height="24" rx="4" transform="rotate(90 84 2211)" fill="#6637EE"/>
<rect x="75" y="2190" width="35" height="36" rx="4" transform="rotate(90 75 2190)" fill="#FB6612"/>
<path fill-rule="evenodd" clip-rule="evenodd" d="M75 2211L75 2221C75 2223.21 73.2091 2225 71 2225L60 2225V2215C60 2212.79 61.7909 2211 64 2211H75Z" fill="#00FFC2"/>
<path fill-rule="evenodd" clip-rule="evenodd" d="M51 2190L51 2200C51 2202.21 49.2091 2204 47 2204H39V2194C39 2191.79 40.7909 2190 43 2190H51Z" fill="#00FFC2"/>
<rect x="53" y="2211" width="26" height="33" rx="4" transform="rotate(90 53 2211)" fill="#CEFF1A"/>
<path fill-rule="evenodd" clip-rule="evenodd" d="M53 2225L43 2225C40.7909 2225 39 2223.21 39 2221V2211H49C51.2091 2211 53 2212.79 53 2215V2225Z" fill="#00FFC2"/>
<circle cx="35" cy="1439" r="15" fill="#CEFF1A"/>
<circle cx="35" cy="1473" r="15" fill="#00FFC2"/>
<circle cx="63" cy="1445" r="21" fill="#6637EE"/>
<path fill-rule="evenodd" clip-rule="evenodd" d="M43.0729 1451.64C47.2386 1448.98 50 1444.31 50 1439C50 1435.96 49.0984 1433.14 47.5483 1430.78C44.1036 1434.52 42 1439.51 42 1445C42 1447.32 42.3769 1449.56 43.0729 1451.64Z" fill="#FB6612"/>
<circle cx="69" cy="1473" r="15" fill="#CEFF1A"/>
<path fill-rule="evenodd" clip-rule="evenodd" d="M77.2214 1460.45C73.4807 1463.9 68.486 1466 63 1466C60.6778 1466 58.4437 1465.62 56.3555 1464.93C59.0206 1460.76 63.6878 1458 69 1458C72.0355 1458 74.8604 1458.9 77.2214 1460.45Z" fill="#FB6612"/>
<path d="M67 1535C69.2091 1535 71 1536.79 71 1539L71 1569C71 1571.21 69.2091 1573 67 1573L27 1573C24.7909 1573 23 1571.21 23 1569L23 1539C23 1536.79 24.7909 1535 27 1535L67 1535Z" fill="#FB6612"/>
<path d="M77 1555C79.2091 1555 81 1556.79 81 1559L81 1589C81 1591.21 79.2091 1593 77 1593L37 1593C34.7909 1593 33 1591.21 33 1589L33 1559C33 1556.79 34.7909 1555 37 1555L77 1555Z" fill="#CEFF1A"/>
<path fill-rule="evenodd" clip-rule="evenodd" d="M71 1555V1569C71 1571.21 69.2091 1573 67 1573L33 1573V1559C33 1556.79 34.7909 1555 37 1555H71Z" fill="#00FFC2"/>
<path d="M74 1648C76.2091 1648 78 1649.79 78 1652L78 1697C78 1699.21 76.2091 1701 74 1701L53 1701C50.7909 1701 49 1699.21 49 1697L49 1652C49 1649.79 50.7909 1648 53 1648L74 1648Z" fill="#FB6612"/>
<circle cx="45.5" cy="1674.5" r="19.5" fill="#6637EE"/>
<path fill-rule="evenodd" clip-rule="evenodd" d="M49 1693.69V1655.31C58.0993 1656.96 65 1664.93 65 1674.5C65 1684.07 58.0993 1692.04 49 1693.69Z" fill="#00FFC2"/>
<circle cx="53" cy="1771" r="17" fill="#6637EE"/>
<circle cx="62" cy="1789" r="17" fill="#00FFC2"/>
<circle cx="44" cy="1789" r="17" fill="#CEFF1A"/>
<path fill-rule="evenodd" clip-rule="evenodd" d="M53 1803.42C57.8043 1800.42 61 1795.08 61 1789C61 1782.92 57.8043 1777.58 53 1774.58C48.1957 1777.58 45 1782.92 45 1789C45 1795.08 48.1957 1800.42 53 1803.42Z" fill="#FB6612"/>
<path d="M66 1871C68.2091 1871 70 1872.79 70 1875L70 1902C70 1904.21 68.2091 1906 66 1906L39 1906C36.7909 1906 35 1904.21 35 1902L35 1875C35 1872.79 36.7909 1871 39 1871L66 1871Z" fill="#CEFF1A"/>
<path d="M77 1882L47 1912H77V1882Z" fill="#FB6612"/>
<path fill-rule="evenodd" clip-rule="evenodd" d="M70 1889V1902C70 1904.21 68.2091 1906 66 1906L53 1906L70 1889Z" fill="#6637EE"/>
<path d="M29 1894L59 1864H29V1894Z" fill="#FB6612"/>
<path fill-rule="evenodd" clip-rule="evenodd" d="M52 1871H39C36.7909 1871 35 1872.79 35 1875V1888L52 1871Z" fill="#6637EE"/>
<path d="M29 1998C29 1995.79 30.7909 1994 33 1994H73C75.2091 1994 77 1995.79 77 1998V2020C77 2022.21 75.2091 2024 73 2024H33C30.7909 2024 29 2022.21 29 2020L29 1998Z" fill="#CEFF1A"/>
<path d="M34 1974C34 1971.79 35.7909 1970 38 1970H68C70.2091 1970 72 1971.79 72 1974V2004C72 2006.21 70.2091 2008 68 2008H38C35.7909 2008 34 2006.21 34 2004L34 1974Z" fill="#6637EE"/>
<path fill-rule="evenodd" clip-rule="evenodd" d="M72 1994V2004C72 2006.21 70.2091 2008 68 2008H38C35.7909 2008 34 2006.21 34 2004V1994H72Z" fill="#00FFC2"/>
<circle cx="53" cy="2104" r="20" fill="#FB6612"/>
<path d="M24 2096C24 2093.79 25.7909 2092 28 2092H44C46.2091 2092 48 2093.79 48 2096V2112C48 2114.21 46.2091 2116 44 2116H28C25.7909 2116 24 2114.21 24 2112L24 2096Z" fill="#00FFC2"/>
<path fill-rule="evenodd" clip-rule="evenodd" d="M36.9985 2116C34.4878 2112.66 33 2108.5 33 2104C33 2099.5 34.4878 2095.34 36.9985 2092H44C46.2091 2092 48 2093.79 48 2096V2112C48 2114.21 46.2091 2116 44 2116H36.9985Z" fill="#CEFF1A"/>
<path d="M59 2096C59 2093.79 60.7909 2092 63 2092H79C81.2091 2092 83 2093.79 83 2096V2112C83 2114.21 81.2091 2116 79 2116H63C60.7909 2116 59 2114.21 59 2112L59 2096Z" fill="#00FFC2"/>
<path fill-rule="evenodd" clip-rule="evenodd" d="M69.0015 2116C71.5122 2112.66 73 2108.5 73 2104C73 2099.5 71.5122 2095.34 69.0015 2092H63C60.7909 2092 59 2093.79 59 2096V2112C59 2114.21 60.7909 2116 63 2116H69.0015Z" fill="#CEFF1A"/>
<rect x="0.5" y="0.5" width="104" height="2263" rx="4.5" stroke="#7B61FF" stroke-dasharray="10 5"/>
</svg>
