<svg width="259" height="344" viewBox="0 0 259 344" fill="none" xmlns="http://www.w3.org/2000/svg">
<rect x="86.1138" width="172" height="172" fill="#FB8212"/>
<path d="M86.1138 172H258.114V344V344C163.121 344 86.1138 266.993 86.1138 172V172Z" fill="#5555F4"/>
<path d="M172.114 172C172.114 160.706 169.889 149.523 165.567 139.089C161.246 128.655 154.911 119.175 146.925 111.189C138.939 103.203 129.459 96.8683 119.025 92.5464C108.591 88.2245 97.4074 86 86.1138 86C74.8201 86 63.637 88.2245 53.203 92.5464C42.769 96.8683 33.2884 103.203 25.3026 111.189C17.3167 119.175 10.982 128.655 6.66012 139.089C2.33822 149.523 0.113768 160.706 0.11377 172L86.1138 172L172.114 172Z" fill="#FB4812"/>
<path d="M172.114 172C172.114 180.405 170.458 188.727 167.242 196.492C164.026 204.257 159.312 211.312 153.369 217.255C147.426 223.198 140.37 227.912 132.606 231.128C124.841 234.345 116.518 236 108.114 236C99.7092 236 91.3869 234.345 83.622 231.128C75.8572 227.912 68.8019 223.198 62.8589 217.255C56.916 211.312 52.2018 204.257 48.9855 196.492C45.7692 188.727 44.1138 180.405 44.1138 172L108.114 172L172.114 172Z" fill="#FB8212"/>
<rect x="121.243" y="42.6772" width="33.1936" height="6.32258" fill="black"/>
</svg>
