<svg width="551" height="385" viewBox="0 0 551 385" fill="none" xmlns="http://www.w3.org/2000/svg">
<rect x="110.969" y="110" width="325" height="110" fill="#FB4712"/>
<rect x="220.969" width="220" height="220" fill="#00FFC2"/>
<path fill-rule="evenodd" clip-rule="evenodd" d="M294.969 71L267.969 44L261.969 50L288.969 77L261.969 104L267.969 110L294.969 83L321.969 110L327.969 104L300.969 77L327.969 50L321.969 44L294.969 71Z" fill="black"/>
<path d="M220.969 220C220.969 263.761 238.353 305.729 269.296 336.673C300.24 367.616 342.208 385 385.969 385C429.729 385 471.698 367.616 502.641 336.673C533.585 305.729 550.969 263.761 550.969 220L385.969 220L220.969 220Z" fill="#5555F4"/>
<path d="M0.968628 220C0.96863 190.826 12.5579 162.847 33.1869 142.218C53.8159 121.589 81.7948 110 110.969 110L110.969 220L0.968628 220Z" fill="#FB4712"/>
<path d="M219.969 220C219.969 241.748 211.329 262.605 195.951 277.983C180.573 293.361 159.716 302 137.969 302C116.221 302 95.3639 293.361 79.9859 277.983C64.6079 262.605 55.9686 241.748 55.9686 220L137.969 220L219.969 220Z" fill="#FB8212"/>
</svg>
