<svg width="258" height="389" viewBox="0 0 258 389" fill="none" xmlns="http://www.w3.org/2000/svg">
<path d="M85.1138 389C107.701 389 130.067 384.551 150.935 375.907C171.803 367.263 190.764 354.594 206.736 338.622C222.708 322.651 235.377 303.69 244.021 282.822C252.665 261.954 257.114 239.587 257.114 217L85.1138 217L85.1138 389Z" fill="#5555F4"/>
<rect x="85.1138" width="172" height="217" fill="#CEFF1A"/>
<path d="M85.1138 71C70.0176 71 55.1874 74.9737 42.1138 82.5218C29.0401 90.0699 18.1837 100.926 10.6356 114L85.1138 157L85.1138 71Z" fill="#FB4812"/>
<path d="M85.1138 217C77.2345 217 69.4323 215.448 62.1528 212.433C54.8732 209.417 48.2589 204.998 42.6874 199.426C37.1158 193.855 32.6963 187.241 29.681 179.961C26.6657 172.681 25.1138 164.879 25.1138 157L85.1138 157L85.1138 217Z" fill="#FB8212"/>
<rect x="120.145" y="85" width="39" height="9" fill="black"/>
</svg>
