<svg width="64" height="64" viewBox="0 0 64 64" fill="none" xmlns="http://www.w3.org/2000/svg">
<path d="M32 64C23.5131 64 15.3737 60.6286 9.37258 54.6274C3.37142 48.6263 -2.3609e-07 40.4869 0 32C2.36091e-07 23.5131 3.37142 15.3737 9.37258 9.37258C15.3737 3.37142 23.5131 -1.01206e-07 32 0L32 32L32 64Z" fill="#00FFC2"/>
<path d="M64 32C64 36.2023 63.1723 40.3634 61.5641 44.2459C59.956 48.1283 57.5989 51.6559 54.6274 54.6274C51.6559 57.5989 48.1283 59.956 44.2459 61.5641C40.3634 63.1723 36.2023 64 32 64L32 32L64 32Z" fill="#6637EE"/>
<path d="M32 64C23.5131 64 15.3737 60.6286 9.37258 54.6274C3.37142 48.6263 -1.12899e-06 40.4869 -1.39876e-06 32L32 32L32 64Z" fill="#CEFF1A"/>
</svg>
