<svg width="41" height="42" viewBox="0 0 41 42" fill="none" xmlns="http://www.w3.org/2000/svg">
<rect x="40.4858" y="12.1714" width="28.9143" height="40.2286" rx="5.02857" transform="rotate(90 40.4858 12.1714)" fill="#CEFF1A"/>
<rect x="16.6001" y="0.856934" width="22.6286" height="6.28571" rx="3.14286" transform="rotate(90 16.6001 0.856934)" fill="#6637EE"/>
<rect x="29.7998" y="0.856934" width="22.6286" height="6.28571" rx="3.14286" transform="rotate(90 29.7998 0.856934)" fill="#6637EE"/>
<path fill-rule="evenodd" clip-rule="evenodd" d="M16.6 12.1714L16.6 20.3429C16.6 22.0786 15.1929 23.4857 13.4571 23.4857C11.7214 23.4857 10.3143 22.0786 10.3143 20.3429L10.3143 12.1714L16.6 12.1714Z" fill="#FB6612"/>
<path fill-rule="evenodd" clip-rule="evenodd" d="M29.8 12.1714L29.8 20.3429C29.8 22.0786 28.3929 23.4857 26.6571 23.4857C24.9214 23.4857 23.5143 22.0786 23.5143 20.3429L23.5143 12.1714L29.8 12.1714Z" fill="#FB6612"/>
</svg>
