<svg width="64" height="64" viewBox="0 0 64 64" fill="none" xmlns="http://www.w3.org/2000/svg">
<path d="M64 32C64 25.671 62.1232 19.4841 58.607 14.2218C55.0908 8.95938 50.0931 4.85786 44.2459 2.43586C38.3986 0.0138518 31.9645 -0.619855 25.7571 0.614873C19.5497 1.8496 13.8479 4.8973 9.37258 9.37259C4.8973 13.8479 1.8496 19.5497 0.614869 25.7571C-0.619857 31.9645 0.0138499 38.3986 2.43585 44.2459C4.85786 50.0931 8.95938 55.0908 14.2218 58.607C19.4841 62.1232 25.671 64 32 64L32 48.9474C28.6481 48.9474 25.3715 47.9534 22.5845 46.0912C19.7976 44.229 17.6254 41.5822 16.3427 38.4855C15.06 35.3888 14.7244 31.9812 15.3783 28.6937C16.0322 25.4063 17.6463 22.3865 20.0164 20.0164C22.3865 17.6463 25.4063 16.0322 28.6937 15.3783C31.9812 14.7244 35.3887 15.06 38.4855 16.3427C41.5822 17.6254 44.229 19.7976 46.0912 22.5845C47.9534 25.3715 48.9474 28.6481 48.9474 32L64 32Z" fill="#CEFF1A"/>
<circle cx="32" cy="32" r="17" fill="#6637EE"/>
</svg>
