<svg width="42" height="41" viewBox="0 0 42 41" fill="none" xmlns="http://www.w3.org/2000/svg">
<path d="M36.7142 2C38.1028 2 39.2285 3.12568 39.2285 4.51429L39.2285 23.3714C39.2285 24.76 38.1028 25.8857 36.7142 25.8857L11.5714 25.8857C10.1828 25.8857 9.05708 24.76 9.05709 23.3714L9.05709 4.51428C9.05709 3.12568 10.1828 2 11.5714 2L36.7142 2Z" fill="#E7A6D5"/>
<path d="M23.5145 11.4287C24.9031 11.4287 26.0288 12.5544 26.0288 13.943L26.0288 32.8001C26.0288 34.1887 24.9031 35.3144 23.5145 35.3144L5.28595 35.3144C3.89735 35.3144 2.77167 34.1887 2.77167 32.8001L2.77167 13.943C2.77167 12.5544 3.89735 11.4287 5.28595 11.4287L23.5145 11.4287Z" fill="#6637EE"/>
<path fill-rule="evenodd" clip-rule="evenodd" d="M31.0571 19.6C36.6116 19.6 41.1143 24.1027 41.1143 29.6571V29.6571C41.1143 35.2116 36.6115 39.7143 31.0571 39.7143L22.2571 39.7143C16.7027 39.7143 12.2 35.2116 12.2 29.6571V29.6571C12.2 24.1027 16.7027 19.6 22.2571 19.6L31.0571 19.6Z" fill="#00FFC2"/>
</svg>
