<svg width="42" height="41" viewBox="0 0 42 41" fill="none" xmlns="http://www.w3.org/2000/svg">
<path d="M29.1713 9.48584C30.5599 9.48584 31.6855 10.6115 31.6855 12.0001L31.6855 28.9716C31.6855 30.3602 30.5599 31.4858 29.1713 31.4858L12.1998 31.4858C10.8112 31.4858 9.68555 30.3602 9.68555 28.9716L9.68555 12.0001C9.68555 10.6115 10.8112 9.48584 12.1998 9.48584L29.1713 9.48584Z" fill="#CEFF1A"/>
<path d="M36.0859 16.3999L17.2288 35.257H36.0859V16.3999Z" fill="#FB6612"/>
<path fill-rule="evenodd" clip-rule="evenodd" d="M31.6857 20.8L31.6857 28.9715C31.6857 30.3601 30.56 31.4858 29.1714 31.4858L20.9999 31.4858L31.6857 20.8Z" fill="#6637EE"/>
<path d="M5.91406 23.9429L24.7712 5.08573H5.91406V23.9429Z" fill="#FB6612"/>
<path fill-rule="evenodd" clip-rule="evenodd" d="M20.3714 9.48571L12.2 9.48571C10.8114 9.48571 9.68571 10.6114 9.68571 12L9.68571 20.1714L20.3714 9.48571Z" fill="#6637EE"/>
</svg>
