<svg width="64" height="64" viewBox="0 0 64 64" fill="none" xmlns="http://www.w3.org/2000/svg">
<rect width="38" height="33" rx="4" transform="matrix(-4.37114e-08 -1 -1 4.37114e-08 56 48)" fill="#CEFF1A"/>
<rect width="24" height="27" rx="4" transform="matrix(-5.36458e-08 -1 -1 3.56167e-08 64 24)" fill="#6637EE"/>
<path fill-rule="evenodd" clip-rule="evenodd" d="M56 24V14C56 11.7909 54.2091 10 52 10L37 10V20C37 22.2091 38.7909 24 41 24H56Z" fill="#00FFC2"/>
<rect width="24" height="27" rx="4" transform="matrix(-4.37114e-08 -1 -1 4.37114e-08 35 58)" fill="#E7A6D5"/>
<path fill-rule="evenodd" clip-rule="evenodd" d="M35 48L35 38C35 35.7909 33.2091 34 31 34H23V44C23 46.2091 24.7909 48 27 48H35Z" fill="#00FFC2"/>
</svg>
