<svg width="41" height="41" viewBox="0 0 41 41" fill="none" xmlns="http://www.w3.org/2000/svg">
<circle cx="9.6859" cy="9.51451" r="9.42857" fill="#CEFF1A"/>
<circle cx="9.6859" cy="30.8856" r="9.42857" fill="#00FFC2"/>
<circle cx="27.2859" cy="13.2859" r="13.2" fill="#6637EE"/>
<path fill-rule="evenodd" clip-rule="evenodd" d="M14.7601 17.4623C17.3785 15.7871 19.1143 12.8534 19.1143 9.51429C19.1143 7.60628 18.5475 5.83064 17.5732 4.34653C15.408 6.69784 14.0857 9.83736 14.0857 13.2857C14.0857 14.7454 14.3226 16.1497 14.7601 17.4623Z" fill="#FB6612"/>
<circle cx="31.057" cy="30.8856" r="9.42857" fill="#CEFF1A"/>
<path fill-rule="evenodd" clip-rule="evenodd" d="M36.2249 22.9982C33.8736 25.1634 30.7341 26.4857 27.2857 26.4857C25.8261 26.4857 24.4218 26.2488 23.1091 25.8113C24.7844 23.1929 27.7181 21.4571 31.0571 21.4571C32.9652 21.4571 34.7408 22.0239 36.2249 22.9982Z" fill="#FB6612"/>
</svg>
