<svg width="41" height="42" viewBox="0 0 41 42" fill="none" xmlns="http://www.w3.org/2000/svg">
<path d="M40.4859 20.9717C40.4859 16.9935 39.3062 13.1046 37.096 9.79681C34.8858 6.48903 31.7444 3.91093 28.069 2.38853C24.3936 0.866129 20.3493 0.467799 16.4475 1.24391C12.5457 2.02003 8.96169 3.93573 6.14866 6.74876C3.33563 9.56179 1.41993 13.1458 0.643813 17.0476C-0.1323 20.9494 0.26603 24.9937 1.78843 28.6691C3.31084 32.3445 5.88894 35.4859 9.19671 37.6961C12.5045 39.9063 16.3934 41.086 20.3716 41.086L20.3716 31.6243C18.2647 31.6243 16.2051 30.9996 14.4533 29.829C12.7015 28.6585 11.3361 26.9948 10.5299 25.0483C9.72359 23.1018 9.51263 20.9599 9.92367 18.8935C10.3347 16.8271 11.3493 14.929 12.8391 13.4392C14.3289 11.9494 16.227 10.9348 18.2934 10.5238C20.3598 10.1127 22.5017 10.3237 24.4482 11.13C26.3947 11.9362 28.0584 13.3016 29.2289 15.0534C30.3995 16.8052 31.0242 18.8648 31.0242 20.9717L40.4859 20.9717Z" fill="#CEFF1A"/>
<circle cx="20.3713" cy="20.9714" r="10.6857" fill="#6637EE"/>
</svg>
