<svg width="64" height="64" viewBox="0 0 64 64" fill="none" xmlns="http://www.w3.org/2000/svg">
<path d="M57 2C59.2091 2 61 3.79086 61 6L61 36C61 38.2091 59.2091 40 57 40L17 40C14.7909 40 13 38.2091 13 36L13 6C13 3.79086 14.7909 2 17 2L57 2Z" fill="#E7A6D5"/>
<path d="M36 17C38.2091 17 40 18.7909 40 21L40 51C40 53.2091 38.2091 55 36 55L7 55C4.79086 55 3 53.2091 3 51L3 21C3 18.7909 4.79086 17 7 17L36 17Z" fill="#6637EE"/>
<path fill-rule="evenodd" clip-rule="evenodd" d="M48 30C56.8366 30 64 37.1634 64 46V46C64 54.8366 56.8366 62 48 62L34 62C25.1634 62 18 54.8366 18 46V46C18 37.1634 25.1634 30 34 30H48Z" fill="#00FFC2"/>
</svg>
